<?xml version="1.0" encoding="UTF-8"?>
<svg width="60px" height="48px" viewBox="0 0 60 48" version="1.1" xmlns="http://www.w3.org/2000/svg" xmlns:xlink="http://www.w3.org/1999/xlink">
    <!-- Generator: Sketch 42 (36781) - http://www.bohemiancoding.com/sketch -->
    <title>sci-logo-menubar-h48px</title>
    <desc>Created with Sketch.</desc>
    <defs></defs>
    <g id="Page-1" stroke="none" stroke-width="1" fill="none" fill-rule="evenodd">
        <g id="sci-logo" transform="translate(1.000000, 3.000000)" fill-rule="nonzero" fill="#000000">
            <path d="M12.5066667,16.7022222 C12.4752872,15.9236471 12.1326184,15.1902719 11.5555556,14.6666667 C10.7931709,14.1337348 9.87585695,13.8680731 8.94666667,13.9111111 C8.20733024,13.882826 7.47344222,14.0482955 6.81777778,14.3911111 C6.2453402,14.6447688 5.86998168,15.2052119 5.85333333,15.8311111 C5.8539865,16.446167 6.23945786,16.995064 6.81777778,17.2044444 C7.61101368,17.5468837 8.43978414,17.8002847 9.28888889,17.96 C10.2488889,18.1688889 11.3511111,18.3733333 12.4488889,18.5777778 C13.542564,18.777064 14.6041137,19.1239366 15.6044444,19.6088889 C16.5562538,20.0683817 17.3999515,20.7242544 18.08,21.5333333 C18.7570231,22.5170102 19.0912744,23.6962612 19.0311111,24.8888889 C19.0169569,25.4909428 18.9243234,26.0885779 18.7555556,26.6666667 C18.526513,27.5423455 18.0783736,28.3453256 17.4533333,29 C16.6251938,29.8558645 15.6476655,30.5532382 14.5688889,31.0577778 C12.92732,31.691045 11.1766454,31.9931459 9.41777778,31.9466667 C8.52191723,31.9440974 7.62856756,31.8517846 6.75111111,31.6711111 C5.72028139,31.5199403 4.72248078,31.1953546 3.8,30.7111111 C2.81736884,30.1806673 1.95252883,29.4564394 1.25777778,28.5822222 C0.453471011,27.4870108 0.0205284391,26.1632655 0.0222222222,24.8044444 L5.91555556,24.8044444 C5.90535633,25.2634135 6.02390791,25.7160649 6.25777778,26.1111111 C6.45974601,26.4681845 6.74294058,26.7726948 7.08444444,27 C7.45229291,27.225035 7.84253837,27.4112208 8.24888889,27.5555556 C8.67387256,27.6731917 9.11538312,27.7197455 9.55555556,27.6933333 C9.94489668,27.7045016 10.3344775,27.6821973 10.72,27.6266667 C11.098182,27.5507356 11.467538,27.4360565 11.8222222,27.2844444 C12.1535502,27.1333943 12.4377102,26.8953143 12.6444444,26.5955556 C12.8769785,26.2776442 12.9973521,25.8915107 12.9866667,25.4977778 C12.9643581,24.9067578 12.5840017,24.3890504 12.0266667,24.1911111 C11.2704246,23.895098 10.4896476,23.6660701 9.69333333,23.5066667 C8.72888889,23.2977778 7.76888889,23.0933333 6.67111111,22.8888889 C5.61738132,22.6999027 4.5983946,22.3522484 3.64888889,21.8577778 C2.71633774,21.4057254 1.91811379,20.7178126 1.33333333,19.8622222 C0.647386885,18.8580055 0.302988136,17.6596226 0.351111111,16.4444444 C0.344344089,15.5965042 0.509128395,14.7559531 0.835555556,13.9733333 C1.18415459,13.14603 1.69841379,12.3988416 2.34666667,11.7777778 C3.1479459,11.0730363 4.08170599,10.5351422 5.09333333,10.1955556 C6.39641552,9.75429285 7.76684072,9.54519394 9.14222222,9.57777778 C11.8888889,9.57777778 14.0888889,10.1955556 15.7333333,11.3555556 C17.4186673,12.5659414 18.4361633,14.4988544 18.48,16.5733333 L12.5066667,16.7022222 Z" id="Shape"></path>
            <path d="M34.2755556,18.1777778 C34.287111,17.5432857 34.1707215,16.9129685 33.9333333,16.3244444 C33.7555909,15.8941876 33.4710724,15.5163592 33.1066667,15.2266667 C32.7768657,14.9711335 32.4012258,14.7810507 32,14.6666667 C31.622054,14.5570951 31.2286365,14.5105457 30.8355556,14.5288889 C30.0468252,14.4888068 29.2665677,14.7072789 28.6133333,15.1511111 C28.0552837,15.5724109 27.6271012,16.142294 27.3777778,16.7955556 C27.0912346,17.4745109 26.9055648,18.1917355 26.8266667,18.9244444 C26.76,19.68 26.6888889,20.4355556 26.6888889,21.1466667 C26.690328,21.861341 26.7602776,22.5742316 26.8977778,23.2755556 C27.0232801,23.9476362 27.2542815,24.5956404 27.5822222,25.1955556 C27.9013589,25.7289484 28.320966,26.1953462 28.8177778,26.5688889 C30.2565435,27.4350052 32.0905459,27.2695853 33.3511111,26.16 C33.9987643,25.4642227 34.3865093,24.5662869 34.4488889,23.6177778 L40.2888889,23.8222222 C40.089673,24.9401401 39.742941,26.0266668 39.2577778,27.0533333 C38.8007585,28.0056982 38.1725381,28.8659231 37.4044444,29.5911111 C36.6220472,30.3370383 35.6839742,30.9001857 34.6577778,31.24 C33.4464194,31.6733843 32.1663083,31.8827202 30.88,31.8577778 C29.3292664,31.887653 27.7881318,31.6081335 26.3466667,31.0355556 C25.1099947,30.5402493 24.0053749,29.7642767 23.12,28.7688889 C22.24503,27.765206 21.5787347,26.5973006 21.16,25.3333333 C20.7105402,23.8943738 20.478353,22.3963922 20.4711111,20.8888889 C20.4445072,19.3047052 20.677209,17.7268367 21.16,16.2177778 C21.5971806,14.9041071 22.2990368,13.6940101 23.2222222,12.6622222 C24.1290985,11.6744457 25.226744,10.8806939 26.4488889,10.3288889 C27.8160062,9.75166055 29.2897024,9.46994679 30.7733333,9.50222222 C32.17838,9.46200225 33.5777983,9.69599344 34.8933333,10.1911111 C35.9800775,10.6271943 36.9796532,11.2549399 37.8444444,12.0444444 C38.5977497,12.8150142 39.2006598,13.7193794 39.6222222,14.7111111 C40.0519413,15.7386578 40.3072955,16.8306724 40.3777778,17.9422222 L34.2755556,18.1777778 Z" id="Shape"></path>
            <path d="M42.7911111,10.04 L48.6977778,10.04 L48.6977778,31.1911111 L42.7911111,31.1911111 L42.7911111,10.04 Z M49.2355556,3.48 C49.237353,4.87215738 48.3998835,6.12815041 47.1140409,6.66173665 C45.8281983,7.19532288 44.3475158,6.90129365 43.3631111,5.9168889 C42.3787063,4.93248416 42.0846771,3.45180168 42.6182634,2.1659591 C43.1518496,0.880116522 44.4078426,0.0426469504 45.8,0.0444444444 C47.6963898,0.0468929818 49.233107,1.5836102 49.2355556,3.48 Z" id="Shape"></path>
            <path d="M51.3066667,28.2755556 C51.2980334,26.5945997 52.4791519,25.1421155 54.1265492,24.8077962 C55.7739465,24.4734769 57.4278367,25.3506303 58.0751591,26.901972 C58.7224816,28.4533136 58.1825695,30.2458666 56.7861365,31.1816347 C55.3897035,32.1174029 53.5264916,31.9352148 52.3377778,30.7466667 C51.6731574,30.0968958 51.3010047,29.2050125 51.3066667,28.2755556 Z" id="Shape"></path>
        </g>
    </g>
</svg>