<?xml version="1.0" encoding="UTF-8"?>
<svg width="498px" height="273px" viewBox="0 0 498 273" version="1.1" xmlns="http://www.w3.org/2000/svg" xmlns:xlink="http://www.w3.org/1999/xlink">
    <!-- Generator: Sketch 42 (36781) - http://www.bohemiancoding.com/sketch -->
    <title>scienceai-logo-submark-v1</title>
    <desc>Created with Sketch.</desc>
    <defs></defs>
    <g id="Page-1" stroke="none" stroke-width="1" fill="none" fill-rule="evenodd">
        <g id="scienceai-logo-submark-v1" fill-rule="nonzero" fill="#000000">
            <path d="M106.590909,142.348485 C106.32347,135.712901 103.402998,129.462544 98.4848485,125 C91.9872517,120.457967 84.1692354,118.193805 76.25,118.560606 C69.9488373,118.319539 63.6941098,119.729791 58.1060606,122.651515 C53.2273313,124.81337 50.028253,129.589874 49.8863636,134.924242 C49.8919304,140.166196 53.1771977,144.844295 58.1060606,146.628788 C64.8665939,149.547304 71.9299785,151.706972 79.1666667,153.068182 C87.3484848,154.848485 96.7424242,156.590909 106.098485,158.333333 C115.41958,160.031796 124.466878,162.988096 132.992424,167.121212 C141.104435,171.037344 148.295041,176.627168 154.090909,183.522727 C159.860992,191.906337 162.709725,201.956772 162.19697,212.121212 C162.076337,217.252353 161.286848,222.345834 159.848485,227.272727 C157.896417,234.735899 154.077048,241.579479 148.75,247.159091 C141.691992,254.453391 133.360786,260.396917 124.166667,264.69697 C110.176023,270.094133 95.2555009,272.668857 80.2651515,272.272727 C72.6299764,272.25083 65.0162008,271.464073 57.5378788,269.924242 C48.7523982,268.635855 40.2484158,265.869499 32.3863636,261.742424 C24.0116662,257.221596 16.6408707,251.049199 10.719697,243.598485 C3.86480975,234.264296 0.174958288,222.982376 0.189393939,211.401515 L50.4166667,211.401515 C50.3297415,215.313183 51.3401242,219.171008 53.3333333,222.537879 C55.0546535,225.581118 57.4682435,228.176376 60.3787879,230.113636 C63.51386,232.031548 66.8398157,233.618359 70.3030303,234.848485 C73.9250502,235.851065 77.6879243,236.247831 81.4393939,236.022727 C84.7576422,236.117911 88.0779334,235.927818 91.3636364,235.454545 C94.586778,234.807406 97.734699,233.830027 100.757576,232.537879 C103.581394,231.250519 106.003212,229.221429 107.765152,226.666667 C109.746976,223.957194 110.772888,220.666284 110.681818,217.310606 C110.491689,212.273504 107.250015,207.861225 102.5,206.174242 C96.0547552,203.651404 89.4004053,201.699461 82.6136364,200.340909 C74.3939394,198.560606 66.2121212,196.818182 56.8560606,195.075758 C47.875409,193.465079 39.1908631,190.502117 31.0984848,186.287879 C23.1506058,182.435159 16.3475607,176.572266 11.3636364,169.280303 C5.51750186,160.721638 2.58228525,150.508147 2.99242424,140.151515 C2.93475076,132.924752 4.33916246,125.760964 7.12121212,119.090909 C10.0922266,112.040028 14.4751175,105.671946 20,100.378788 C26.8290844,94.3724686 34.7872669,89.7881433 43.4090909,86.8939394 C54.514905,83.1331777 66.1946653,81.3510847 77.9166667,81.6287879 C101.325758,81.6287879 120.075758,86.8939394 134.090909,96.780303 C148.454551,107.096091 157.126392,123.569782 157.5,141.25 L106.590909,142.348485 Z" id="Shape"></path>
            <path d="M292.121212,154.924242 C292.219696,149.51664 291.22774,144.144618 289.204545,139.128788 C287.689695,135.461826 285.264822,132.241698 282.159091,129.772727 C279.348288,127.594888 276.146811,125.974864 272.727273,125 C269.506142,124.066151 266.153152,123.669424 262.80303,123.825758 C256.080896,123.484149 249.430975,125.346127 243.863636,129.128788 C239.107531,132.719411 235.458249,137.576369 233.333333,143.143939 C230.891204,148.930491 229.308791,155.0432 228.636364,161.287879 C228.068182,167.727273 227.462121,174.166667 227.462121,180.227273 C227.474386,186.318248 228.070548,192.39402 229.242424,198.371212 C230.312046,204.099173 232.280809,209.621935 235.075758,214.734848 C237.795672,219.28081 241.371869,223.255791 245.606061,226.439394 C257.868269,233.821067 273.498971,232.411239 284.242424,222.954545 C289.762196,217.024625 293.066841,209.371763 293.598485,201.287879 L343.371212,203.030303 C341.67335,212.558012 338.718247,221.818183 334.583333,230.568182 C330.688282,238.684928 325.334132,246.01639 318.787879,252.19697 C312.11972,258.554304 304.12478,263.353855 295.378788,266.25 C285.054711,269.943617 274.144673,271.727729 263.181818,271.515152 C249.965338,271.76977 236.830669,269.387501 224.545455,264.507576 C214.005637,260.286216 204.591264,253.672813 197.045455,245.189394 C189.588324,236.635278 183.909671,226.681539 180.340909,215.909091 C176.510286,203.645231 174.531418,190.878343 174.469697,178.030303 C174.242959,164.528737 176.226213,151.080994 180.340909,138.219697 C184.06688,127.02364 190.048609,116.710313 197.916667,107.916667 C205.645726,99.4981172 215.000659,92.7331865 225.416667,88.030303 C237.068235,83.1107433 249.628145,80.7097738 262.272727,80.9848485 C274.247557,80.6420646 286.174417,82.6363077 297.386364,86.8560606 C306.648388,90.5726785 315.167499,95.9227829 322.537879,102.651515 C328.958094,109.218871 334.096533,116.926529 337.689394,125.378788 C341.351772,134.136288 343.528086,143.443231 344.128788,152.916667 L292.121212,154.924242 Z" id="Shape"></path>
            <path d="M364.69697,85.5681818 L415.037879,85.5681818 L415.037879,265.833333 L364.69697,265.833333 L364.69697,85.5681818 Z M419.621212,29.6590909 C419.636532,41.5240686 412.499007,52.2285547 401.540121,56.7761646 C390.581236,61.3237745 377.961783,58.8178436 369.57197,50.4280304 C361.182156,42.0382173 358.676225,29.4187643 363.223835,18.4598787 C367.771445,7.50099309 378.475931,0.363468327 390.340909,0.378787879 C406.503322,0.399656095 419.600344,13.4966779 419.621212,29.6590909 Z" id="Shape"></path>
            <path d="M437.272727,240.984848 C437.199149,226.65852 447.265499,214.279394 461.305817,211.430081 C475.346135,208.580769 489.44179,216.056508 494.958743,229.27817 C500.475695,242.499832 495.874172,257.777272 483.972754,265.752569 C472.071337,273.727865 456.191689,272.175126 446.060606,262.045455 C440.396228,256.507635 437.224472,248.906357 437.272727,240.984848 Z" id="Shape"></path>
        </g>
    </g>
</svg>