<?xml version="1.0" encoding="UTF-8"?>
<svg width="9px" height="10px" viewBox="0 0 9 10" version="1.1" xmlns="http://www.w3.org/2000/svg" xmlns:xlink="http://www.w3.org/1999/xlink">
    <!-- Generator: Sketch 42 (36781) - http://www.bohemiancoding.com/sketch -->
    <title>Page 1</title>
    <desc>Created with Sketch.</desc>
    <defs></defs>
    <g id="Page-1" stroke="none" stroke-width="1" fill="none" fill-rule="evenodd">
        <g>
            <path d="M8.078,9.08605 L4.916,5.92405 C4.421,6.23505 3.836,6.41605 3.208,6.41605 C1.436,6.41605 0,4.98005 0,3.20805 C0,1.43705 1.436,5e-05 3.208,5e-05 C4.979,5e-05 6.416,1.43705 6.416,3.20805 C6.416,3.83605 6.236,4.42105 5.924,4.91605 L9,7.96005 L8.078,9.08605 Z" id="Fill-1" fill="#999999"></path>
            <path d="M3.2079,4.99035 C4.1919,4.99035 4.9899,4.19235 4.9899,3.20835 C4.9899,2.22335 4.1919,1.42635 3.2079,1.42635 C2.2239,1.42635 1.4259,2.22335 1.4259,3.20835 C1.4259,4.19235 2.2239,4.99035 3.2079,4.99035" id="Fill-4" fill="#FFFFFF"></path>
        </g>
    </g>
</svg>